<?xml version="1.0" encoding="UTF-8"?>
<svg width="240px" height="60px" viewBox="0 0 240 60" version="1.1" xmlns="http://www.w3.org/2000/svg" xmlns:xlink="http://www.w3.org/1999/xlink">
    <g id="中台-登录&amp;应用管理" stroke="none" stroke-width="1" fill="none" fill-rule="evenodd">
        <g id="102_-登录提示2" transform="translate(-72.000000, -64.000000)" fill="#0B2267">
            <g id="ic_logo_streamax" transform="translate(72.000000, 64.000000)">
                <path d="M141.395139,41.8389206 L141.395139,45.9785784 L149.91378,45.9785784 L149.91378,41.8389206 L141.395139,41.8389206 L141.395139,41.8389206 Z M90.0085006,39.0346362 L92.8251479,39.0346362 L93.2373402,39.0346362 L93.0999428,39.4352483 L92.6877505,40.5703158 L92.6190517,40.7038531 L92.8251479,40.7038531 L98.9393335,40.7038531 L99.2141283,40.7038531 L99.2141283,40.9709278 L99.2141283,42.5066073 L99.2141283,42.773682 L98.9393335,42.773682 L91.8633659,42.773682 L91.7946672,42.773682 L91.7946672,42.8404507 L91.7259685,43.0407567 L91.7259685,43.1075254 C91.6572697,43.3078314 91.5198723,43.5081374 91.3137762,43.7084435 C91.10768,43.9087495 90.9015839,44.0422868 90.6954877,44.1090555 L90.6954877,44.1090555 C90.4206929,44.2425929 90.145898,44.3093615 89.8024045,44.3761302 C89.4589109,44.4428989 89.1154173,44.4428989 88.703225,44.4428989 L87.1231546,44.4428989 L86.8483597,44.4428989 L86.8483597,44.1758242 L86.8483597,43.4413688 L86.8483597,43.1742941 L87.1231546,43.1742941 L87.6040456,43.1742941 C87.6727443,43.1742941 87.8101417,43.1742941 87.8788404,43.1075254 C87.9475392,43.1075254 88.0162379,43.0407567 88.0849366,42.973988 L88.1536353,42.973988 C88.222334,42.9072194 88.2910327,42.8404507 88.3597315,42.773682 C88.4284302,42.7069133 88.4971289,42.6401447 88.4971289,42.5066073 L89.8711032,39.1014049 L89.9398019,38.9010989 L90.0085006,38.9010989 L90.0085006,39.0346362 Z M99.2141283,45.444429 L99.2141283,47.0468772 L99.2141283,47.3139519 L98.9393335,47.3139519 L94.7487119,47.3139519 L94.6113145,47.3139519 L94.6113145,47.4474892 L94.6113145,49.8511615 L94.6113145,49.9846988 L94.7487119,49.9846988 L98.9393335,49.9846988 L99.2141283,49.9846988 L99.2141283,50.2517735 L99.2141283,51.9209904 L99.2141283,52.1880651 L98.9393335,52.1880651 L94.7487119,52.1880651 L94.6113145,52.1880651 L94.6113145,52.3216024 L94.6113145,57.1957157 C94.6113145,57.3960217 94.6800132,57.529559 94.8174106,57.5963277 C95.0235068,57.7298651 95.3670003,57.7966337 95.5730965,57.7966337 L101.549885,57.7966337 C101.755981,57.7966337 101.893378,57.7298651 102.030776,57.6630964 C102.168173,57.529559 102.236872,57.329253 102.30557,57.128947 L102.374269,56.8618723 L102.374269,56.8618723 L103.267352,53.3899012 L103.336051,53.1895952 L103.542147,53.1895952 L106.63359,53.1895952 L106.977083,53.1895952 L106.908384,53.5234386 L105.603109,58.9317012 C105.53441,59.3323133 105.328314,59.599388 104.98482,59.799694 C104.710026,59.9332313 104.366532,60 104.023038,60 L93.9243273,60 C93.3060389,60 92.4816543,59.799694 91.8633659,59.2655446 C91.3824749,58.8649325 91.0389813,58.3307831 90.9702826,57.5963277 L90.9702826,57.5963277 L90.9702826,52.3883711 L90.9702826,52.2548338 L90.9702826,52.2548338 L87.0544559,52.2548338 L86.779661,52.2548338 L86.779661,51.9877591 L86.779661,50.3185422 L86.779661,50.0514675 L87.0544559,50.0514675 L90.9702826,50.0514675 L91.10768,50.0514675 L91.10768,49.9179302 L91.10768,47.5142579 L91.10768,47.3807205 L90.9702826,47.3807205 L87.0544559,47.3807205 L86.779661,47.3807205 L86.779661,47.1136458 L86.779661,45.5111977 L86.779661,45.244123 L87.0544559,45.244123 L98.9393335,45.244123 L99.2141283,45.244123 L99.2141283,45.444429 L99.2141283,45.444429 Z M101.412487,39.502017 L100.931596,39.502017 L101.137692,39.902629 L102.717763,42.8404507 L102.786461,43.0407567 L102.580365,43.0407567 L100.519404,43.0407567 L100.244609,43.0407567 L100.244609,43.3078314 L100.244609,51.8542217 L100.244609,52.1212964 L100.519404,52.1212964 L109.038045,52.1212964 L109.038045,58.1304771 C109.038045,58.3975518 109.106743,58.6646265 109.175442,58.9317012 C109.312839,59.1320072 109.450237,59.3323133 109.656333,59.4658506 C109.862429,59.599388 110.137224,59.7329253 110.480718,59.799694 C110.824211,59.8664627 111.167705,59.8664627 111.579897,59.8664627 L117.900179,59.8664627 L118.174974,59.8664627 L118.174974,59.599388 L118.174974,57.9969398 L118.174974,57.7298651 L117.900179,57.7298651 L113.640858,57.7298651 C113.503461,57.7298651 113.366064,57.7298651 113.228666,57.6630964 C113.091269,57.6630964 113.02257,57.5963277 112.953871,57.5963277 C112.885173,57.529559 112.747775,57.4627904 112.747775,57.3960217 C112.679076,57.329253 112.679076,57.2624844 112.679076,57.128947 L112.679076,52.1212964 L112.953871,52.1212964 C113.159967,52.1212964 113.434762,52.1212964 113.640858,52.1212964 C115.358326,52.1212964 117.28189,51.8542217 117.28189,49.7176241 L117.28189,43.3078314 L117.28189,43.0407567 L117.007095,43.0407567 L115.014833,43.0407567 L114.808737,43.0407567 L114.946134,42.8404507 L116.663602,39.902629 L116.938397,39.502017 L116.388807,39.502017 L114.533942,39.502017 L114.533942,39.502017 L114.259147,39.502017 C114.121749,39.502017 113.915653,39.502017 113.778256,39.5687856 C113.640858,39.6355543 113.434762,39.702323 113.297365,39.7690917 C113.159967,39.8358603 113.02257,39.9693977 112.885173,40.102935 L112.885173,40.102935 C112.747775,40.2364724 112.610378,40.4367784 112.541679,40.6370844 L112.541679,40.7038531 L111.167705,43.0407567 L111.099006,43.1075254 L111.030307,43.1075254 L106.63359,43.1075254 L106.564891,43.1075254 L106.496192,43.0407567 L105.259615,40.6370844 L105.259615,40.6370844 L105.259615,40.6370844 C105.122218,40.4367784 104.98482,40.3032411 104.778724,40.1697037 C104.641327,40.0361664 104.435231,39.902629 104.229135,39.8358603 C104.023038,39.7690917 103.748243,39.702323 103.40475,39.6355543 C103.129955,39.5687856 102.786461,39.5687856 102.374269,39.5687856 L101.412487,39.5687856 L101.412487,39.502017 Z M103.95434,49.9846988 L112.198185,49.9846988 L112.198185,49.9846988 L112.198185,49.9846988 C112.47298,49.9846988 112.816474,49.9179302 113.091269,49.7843928 C113.297365,49.6508555 113.434762,49.5173181 113.434762,49.1834748 L113.434762,49.1834748 L113.434762,49.1834748 L113.434762,45.1105856 L103.95434,45.1105856 L103.95434,49.9846988 L103.95434,49.9846988 Z M127.105806,42.3063013 L127.105806,48.315482 L131.365127,48.315482 L131.365127,42.3063013 L127.105806,42.3063013 L127.105806,42.3063013 Z M127.174505,50.6523856 L127.174505,56.8618723 L127.930191,56.8618723 C128.685877,56.8618723 129.441563,56.8618723 130.197249,56.8618723 C130.540742,56.8618723 130.884236,56.7951036 131.090332,56.5947976 C131.227729,56.4612603 131.365127,56.2609542 131.365127,55.9938795 L131.365127,50.5856169 L127.174505,50.5856169 L127.174505,50.6523856 Z M123.602172,40.0361664 L134.93746,40.0361664 L135.212255,40.0361664 L135.212255,40.3032411 L135.212255,56.4612603 C135.212255,57.5963277 134.868761,58.2640145 134.181774,58.6646265 C133.563486,59.0652386 132.670402,59.1320072 131.639922,59.1320072 L123.602172,59.1320072 L123.327377,59.1320072 L123.327377,58.8649325 L123.258678,40.3700097 L123.258678,40.102935 L123.602172,40.102935 L123.602172,40.0361664 Z M141.532536,52.0545278 L149.776382,52.0545278 L149.91378,52.0545278 L149.91378,51.9209904 L149.91378,48.1819446 L141.395139,48.1819446 L141.395139,51.9209904 L141.395139,52.0545278 L141.532536,52.0545278 L141.532536,52.0545278 Z M153.829606,39.8358603 L153.898305,56.928641 C153.898305,58.3307831 153.348715,59.0652386 152.455632,59.4658506 C151.631248,59.8664627 150.600767,59.8664627 149.432889,59.8664627 L146.13535,59.8664627 L145.929254,59.8664627 L145.929254,59.599388 L145.929254,57.6630964 L145.929254,57.3960217 L146.204049,57.3960217 L148.883299,57.3960217 L148.883299,57.3960217 L148.883299,57.3960217 C149.158094,57.3960217 149.432889,57.329253 149.570286,57.1957157 C149.707684,57.0621783 149.845081,56.8618723 149.845081,56.5947976 L149.845081,56.5947976 L149.845081,56.5947976 L149.845081,54.257894 L149.845081,54.1243567 L149.707684,54.1243567 L141.463838,54.1243567 L141.32644,54.1243567 L141.32644,54.257894 L141.32644,57.6630964 L141.32644,57.6630964 C141.32644,58.4643205 140.982947,58.9984699 140.433357,59.3323133 C139.815069,59.7329253 138.990684,59.9332313 138.234998,59.9332313 L136.242735,59.9332313 L135.967941,59.9332313 L135.967941,59.6661566 L135.967941,57.7298651 L135.967941,57.4627904 L136.242735,57.4627904 L136.380133,57.4627904 C136.861024,57.4627904 137.341915,57.4627904 137.341915,56.928641 L137.273216,39.902629 L137.273216,39.6355543 L137.548011,39.6355543 L153.417414,39.6355543 L153.692209,39.6355543 L153.829606,39.8358603 Z" id="Shape"></path>
                <g id="Group">
                    <path d="M194.461538,7.12087912 C198.905983,7.12087912 200.478632,10.0879121 200.478632,12.989011 L200.478632,21.4285714 C200.478632,24.3296703 198.905983,27.2967033 194.461538,27.2967033 L178.25641,27.2967033 C174.974359,27.1648352 172.034188,24.8571429 171.965812,20.967033 C171.965812,18.0659341 174.837607,14.967033 178.188034,15.0989011 L184.478632,15.032967 L192.205128,15.032967 L192.205128,18.5274725 L180.581197,18.5274725 C179.487179,18.5934066 177.91453,19.3846154 177.846154,21.1648352 C177.91453,22.9450549 179.555556,23.7362637 180.649573,23.8021978 L191.589744,23.8021978 C192.752137,23.8021978 194.529915,23.010989 194.529915,21.032967 L194.529915,13.1208791 C194.393162,11.3406593 192.683761,10.6153846 191.589744,10.6153846 L172.239316,10.6153846 L172.239316,7.12087912 L194.461538,7.12087912 Z M39.042735,0.527472527 L39.042735,7.12087912 L53.0598291,7.12087912 C52.2393162,8.24175824 51.5555556,9.36263736 50.9401709,10.6153846 L39.042735,10.6153846 L39.042735,20.967033 C39.042735,23.3406593 41.4358974,23.7362637 41.8461538,23.7362637 L47.4529915,23.7362637 L46.4957265,27.2307692 L40.4786325,27.2307692 L40.4786325,27.2967033 C38.1538462,27.2967033 36.3076923,26.6373626 35.008547,25.3846154 C33.7094017,24.1318681 33.025641,22.3516484 33.025641,20.1098901 L33.025641,10.6153846 L30.0854701,10.6153846 L30.0854701,7.12087912 L33.025641,7.12087912 L33.025641,0.527472527 L39.042735,0.527472527 Z M28.3076923,0.461538462 L28.3076923,3.95604396 L8.75213675,3.95604396 C7.58974359,3.95604396 5.94871795,4.87912088 5.94871795,7.12087912 L5.94871795,9.36263736 C5.94871795,11.010989 7.45299145,12.1318681 8.75213675,12.1318681 L22.974359,12.1318681 C25.2991453,12.1318681 28.3760684,13.8461538 28.3760684,18.2637363 L28.3760684,20.1098901 C28.3760684,22.3516484 27.965812,24.1978022 26.6666667,25.4505495 C25.1623932,26.9010989 23.3162393,27.2967033 21.0598291,27.2967033 L0.0683760684,27.2967033 L0.0683760684,23.8021978 L19.7606838,23.8021978 C20.9230769,23.8021978 22.5641026,22.8791209 22.5641026,20.6373626 L22.5641026,18.3956044 C22.5641026,16.7472527 21.0598291,15.6263736 19.7606838,15.6263736 L5.53846154,15.6263736 C3.00854701,15.6263736 0.136752137,13.9120879 0.136752137,9.49450549 L0.136752137,7.64835165 C0.0683760684,5.07692308 0.341880342,3.56043956 1.64102564,2.30769231 C3.14529915,0.857142857 5.1965812,0.461538462 7.45299145,0.461538462 L28.3076923,0.461538462 Z M128.273504,7.12087912 C132.717949,7.12087912 134.290598,10.0879121 134.290598,12.989011 L134.290598,21.4285714 C134.290598,24.3296703 132.717949,27.2967033 128.273504,27.2967033 L112.136752,27.2967033 C108.854701,27.1648352 105.91453,24.8571429 105.846154,20.967033 C105.846154,18.0659341 108.717949,14.967033 112.068376,15.0989011 L118.290598,15.032967 L126.017094,15.032967 L126.017094,18.5274725 L114.393162,18.5274725 C113.299145,18.5934066 111.726496,19.3846154 111.65812,21.1648352 C111.726496,22.9450549 113.367521,23.7362637 114.461538,23.8021978 L125.401709,23.8021978 C126.564103,23.8021978 128.34188,23.010989 128.34188,21.032967 L128.34188,13.1208791 C128.205128,11.3406593 126.495726,10.6153846 125.401709,10.6153846 L106.051282,10.6153846 L106.051282,7.12087912 L128.273504,7.12087912 Z M226.529915,18 L238.017094,26.1758242 L239.521368,27.2307692 L230.564103,27.2307692 L230.358974,27.0989011 L222.017094,21.1648352 L226.188034,18.2637363 L226.529915,18 Z M211.145299,7.12087912 L225.367521,17.1428571 L211.145299,27.2307692 L202.119658,27.2307692 L216.34188,17.1428571 L202.119658,7.12087912 L211.145299,7.12087912 Z M164.307692,7.12087912 C167.863248,7.12087912 170.461538,9.62637363 170.324786,12.7252747 L170.461538,27.2307692 L164.444444,27.2307692 L164.444444,13.4505495 C164.444444,11.9340659 163.145299,10.5494505 161.504274,10.5494505 L156.239316,10.5494505 L156.239316,27.1648352 L150.222222,27.1648352 L150.222222,10.5494505 L144.957265,10.5494505 C143.247863,10.5494505 142.017094,11.8681319 142.017094,13.4505495 L142.017094,27.2307692 L136,27.2307692 L136.136752,12.7252747 C135.794872,9.56043956 138.393162,7.12087912 141.948718,7.12087912 L164.307692,7.12087912 Z M73.7094017,7.05494505 L72.6837607,10.5494505 L64.2735043,10.6153846 C63.1794872,10.6153846 59.7606838,11.3406593 59.008547,15.1648352 L55.6581197,27.2307692 L49.6410256,27.2307692 L53.3333333,13.1208791 C55.042735,8.10989011 59.8290598,7.05494505 61.5384615,7.05494505 L73.7094017,7.05494505 Z M96.7521368,7.05494505 C100.034188,7.18681319 102.974359,9.49450549 103.042735,13.3846154 C103.042735,16.2857143 100.17094,19.3846154 96.8205128,19.2527473 L90.5299145,19.3186813 L82.8034188,19.3186813 L82.8034188,15.8241758 L94.4273504,15.8241758 C95.5213675,15.7582418 97.0940171,14.967033 97.1623932,13.1868132 C97.0940171,11.4065934 95.4529915,10.6153846 94.3589744,10.5494505 L83.4188034,10.5494505 C82.2564103,10.5494505 80.4786325,11.3406593 80.4786325,13.3186813 L80.4786325,21.2307692 C80.6153846,23.010989 82.3247863,23.7362637 83.4188034,23.7362637 L102.769231,23.7362637 L102.769231,27.2307692 L80.5470085,27.2307692 C76.1025641,27.2307692 74.5299145,24.2637363 74.5299145,21.3626374 L74.5299145,12.9230769 C74.5299145,10.021978 76.1025641,7.05494505 80.5470085,7.05494505 L96.7521368,7.05494505 Z M239.521368,7.12087912 L238.017094,8.17582418 L226.529915,16.2857143 L226.188034,16.0879121 L222.017094,13.1208791 L230.358974,7.18681319 L230.495726,7.12087912 L239.521368,7.12087912 Z" id="Combined-Shape"></path>
                </g>
            </g>
        </g>
    </g>
</svg>