<?xml version="1.0" encoding="UTF-8"?>
<svg width="14px" height="14px" viewBox="0 0 14 14" version="1.1" xmlns="http://www.w3.org/2000/svg" xmlns:xlink="http://www.w3.org/1999/xlink">
    <g id="中台-登录&amp;应用管理" stroke="none" stroke-width="1" fill="none" fill-rule="evenodd">
        <g id="200_应用管理" transform="translate(-1730.000000, -375.000000)" fill="currentColor">
            <g id="Shape" transform="translate(1730.000000, 375.000000)">
                <path d="M8.953125,0 C9.25,0 9.3984375,0.359375 9.1890625,0.56875 L3.5984375,6.1578125 C2.4265625,7.3296875 2.4265625,9.2296875 3.5984375,10.4 C4.7703125,11.5703125 6.6703125,11.571875 7.840625,10.4 L13.43125,4.8125 C13.640625,4.6015625 14,4.75 14,5.046875 L14,13 C14,13.5522847 13.5522847,14 13,14 L1,14 C0.44771525,14 9.37667865e-16,13.5522847 0,13 L0,1 C-6.76353751e-17,0.44771525 0.44771525,1.01453063e-16 1,0 L8.953125,0 L8.953125,0 Z M12.521875,3.278125 C12.2703125,3.5296875 11.8921875,3.5578125 11.678125,3.3421875 L10.6578125,2.321875 C10.4421875,2.10625 10.471875,1.728125 10.721875,1.4765625 L11.25625,0.9421875 C11.7046875,0.49375 12.3796875,0.4421875 12.7640625,0.8265625 L13.1703125,1.2328125 C13.55625,1.6203125 13.5046875,2.2953125 13.05625,2.74375 L12.521875,3.278125 Z M11.09375,4.70625 L6.778125,9.021875 C6.63125,9.16875 6.4484375,9.26875 6.271875,9.3 L5.0375,9.5140625 C4.66875,9.578125 4.421875,9.33125 4.4859375,8.9625 L4.7,7.728125 C4.73125,7.5515625 4.83125,7.36875 4.978125,7.221875 L9.29375,2.90625 C9.6,2.6 10.021875,2.5265625 10.2375,2.7421875 L11.2578125,3.7625 C11.4734375,3.978125 11.4,4.4 11.09375,4.70625 Z"></path>
            </g>
        </g>
    </g>
</svg>