<?xml version="1.0" encoding="UTF-8"?>
<svg width="14px" height="14px" viewBox="0 0 14 14" version="1.1" xmlns="http://www.w3.org/2000/svg" xmlns:xlink="http://www.w3.org/1999/xlink">
    <g id="Manager-基础数据" stroke="none" stroke-width="1" fill-rule="evenodd">
        <g id="400_用户反馈-用户反馈" transform="translate(-1715.000000, -325.000000)" fill-rule="nonzero" fill="currentColor">
            <g id="ic_list_details" transform="translate(1715.000000, 325.000000)">
                <path d="M12.3956824,10.1571464 C12.3956824,8.44257782 11.0086051,7.05543201 9.29764189,7.05543201 C7.58667864,7.05543201 6.19960143,8.4460985 6.19960143,10.1571464 C6.19960143,11.8681943 7.58667864,13.2588607 9.29764189,13.2588607 C10.0475085,13.2588607 10.7269651,12.9807275 11.2620812,12.5406431 L12.4902752,13.5812148 C12.8163087,13.8574426 13.3045379,13.817067 13.5807657,13.4910335 C13.5812082,13.4905112 13.5816499,13.4899884 13.582091,13.4894649 C13.8583698,13.1616109 13.8171366,12.6719902 13.4899178,12.3949595 L12.1774113,11.2837623 L12.1774113,11.2837623 C12.3217518,10.9246535 12.3956824,10.5444206 12.3956824,10.1571464 Z M9.29412139,11.7097639 C8.43863976,11.7273673 7.72749866,11.0513977 7.70989616,10.1923531 C7.69229365,9.33682918 8.36822975,8.62213223 9.22371138,8.60452886 L9.29412139,8.60452886 C10.149603,8.62213223 10.8290596,9.33330851 10.8079366,10.1923531 C10.7903341,11.0232323 10.1249595,11.6886399 9.29412139,11.7097639 Z M5.42509131,10.1536257 C5.42509131,8.00953484 7.16069807,6.27032156 9.30116239,6.27032156 C9.85388098,6.27032156 10.3749151,6.3900245 10.8501826,6.5977443 L10.8501826,1.55261752 C10.8501826,0.697093582 10.156644,0 9.30116239,0 L1.54902023,0 C0.693538604,0 0,0.693572907 0,1.55261752 L0,11.7062432 C0,12.5617672 0.693538604,13.2588607 1.54902023,13.2588607 L6.99523455,13.2588607 C6.0094944,12.5336018 5.42509131,11.3823412 5.42509131,10.1536257 Z M7.88592118,3.07706965 C8.16756122,3.07706965 8.39639376,3.28126878 8.39639376,3.53475735 C8.39639376,3.78824593 8.16756122,3.99244506 7.88592118,3.99244506 L2.05949281,3.99244506 C1.77785277,3.99244506 1.54902023,3.78824593 1.54902023,3.53475735 C1.54902023,3.28126878 1.77785277,3.07706965 2.05949281,3.07706965 L7.88592118,3.07706965 Z M5.84051038,5.82319588 C6.12215042,5.82319588 6.35098295,6.02739501 6.35098295,6.28088358 C6.35098295,6.53437216 6.12215042,6.73857129 5.84051038,6.73857129 L2.05949281,6.73857129 C1.77785277,6.73857129 1.54902023,6.53437216 1.54902023,6.28088358 C1.54902023,6.02739501 1.77785277,5.82319588 2.05949281,5.82319588 L5.84051038,5.82319588 Z M2.05949281,9.48469752 C1.77785277,9.48469752 1.54902023,9.28049839 1.54902023,9.02700981 C1.54902023,8.77352124 1.77785277,8.56932211 2.05949281,8.56932211 L4.81956522,8.56932211 C5.10120526,8.56932211 5.3300378,8.77352124 5.3300378,9.02700981 C5.3300378,9.28049839 5.10120526,9.48469752 4.81956522,9.48469752 L2.05949281,9.48469752 Z" id="Shape"></path>
            </g>
        </g>
    </g>
</svg>