<?xml version="1.0" encoding="UTF-8"?>
<svg width="16px" height="16px" viewBox="0 0 16 16" version="1.1" xmlns="http://www.w3.org/2000/svg" xmlns:xlink="http://www.w3.org/1999/xlink">
    <title>icon_car_open_door</title>
    <g id="中台-FT-manager" stroke="none" stroke-width="1" fill="none" fill-rule="evenodd">
        <g id="画板" transform="translate(-278.000000, -387.000000)">
            <g id="icon_car_open_door" transform="translate(278.000000, 387.000000)">
                <rect id="矩形" x="0" y="0" width="16" height="16"></rect>
                <path d="M11.9889264,2.81061649 L12,2.97963808 L12,5.89519505 L11.7313138,5.89519505 L11.0587202,7.99998641 L11.0582812,9.68381948 L11.999561,9.68381948 L11.999561,12.9159371 C11.9354415,14.621428 10.490117,15.9675419 8.73097615,15.9994217 L8.55405554,15.9981935 L7.44550543,15.9981935 C5.6666295,16.0549903 4.16599029,14.7657244 4.01097644,13.0852529 L4,12.9159371 L4,9.68381948 L4.94127978,9.68381948 L4.94127978,7.99998641 L4.2686862,5.89519505 L4,5.89519505 L4,2.97963808 C4.06151529,1.33361488 5.45501045,0.0339682707 7.15211962,0.000669017121 L7.32872351,0.0017792789 L8.67083744,0.0017792789 C10.3878259,-0.053579288 11.8367577,1.1894178 11.9889264,2.81061649 Z M8.79291879,1.0012688 L7.32532708,1.00128389 C6.12652247,0.961979191 5.12643902,1.83009948 5.01044946,2.92064073 L5.000605,3.05806728 L5.000605,5.05298881 L5.0284864,5.05307144 L5.90808571,7.86357231 L5.90808571,10.5325062 L5.000605,10.5322464 L5,12.806252 C5.04409702,14.0038496 6.04746961,14.9648368 7.31241527,14.9986602 L8.56151226,14.9986701 C9.81997144,15.0396961 10.8700503,14.1263483 10.9891963,12.978008 L10.9989791,12.8391252 L10.9985454,10.5322464 L10.0912749,10.5325062 L10.0919565,7.86346102 L10.9715209,5.05307144 L10.9994023,5.05298881 L11,3.09074091 C10.9582352,1.94954247 10.0012663,1.03312127 8.79291879,1.0012688 Z M9.37536739,10.9466943 L10.0129122,12.9108856 C8.70266147,13.3228513 7.29797885,13.3228513 5.98772811,12.9108856 L5.98772811,12.9108856 L6.62527292,10.9466943 C7.07761456,11.040738 7.53834998,11.0882718 8.00032016,11.0885572 C8.46229034,11.0882718 8.92302576,11.040738 9.37536739,10.9466943 L9.37536739,10.9466943 Z M3.34425937,6.15240056 L4.06199975,6.7371116 L1.87894187,9.42661399 L1,8.5337615 L3.34425937,6.15240056 Z M12.6557406,6.15240056 L15,8.5337615 L14.1210581,9.42661399 L11.9380002,6.7371116 L12.6557406,6.15240056 Z M5.63771211,3.73567912 C7.17583337,3.24737807 8.82480695,3.24737807 10.3629282,3.73567912 L10.3629282,3.73567912 L9.61421439,6.06357837 C9.08332458,5.95194142 8.54254893,5.89552038 8.00032016,5.89519505 C7.45809139,5.89552038 6.91731574,5.95194142 6.38642593,6.06357837 L6.38642593,6.06357837 Z" id="形状结合" fill="#FAAD14" fill-rule="nonzero"></path>
            </g>
        </g>
    </g>
</svg>